<?xml version="1.0" encoding="UTF-8"?>
<svg xmlns="http://www.w3.org/2000/svg" version="1.1" viewBox="0 0 500 500">
  <defs>
    <style>
      .cls-1 {
        fill: #00a1e4;
        opacity: .3;
      }
    </style>
  </defs>
  <!-- Generator: Adobe Illustrator 28.7.1, SVG Export Plug-In . SVG Version: 1.2.0 Build 142)  -->
  <g>
    <g id="Calque_1">
      <path class="cls-1" d="M363.8,31.5h-228.2c-57.5,0-104.5,47-104.5,104.5v227.9c0,57.5,47,104.5,104.5,104.5h227.9c57.5,0,104.5-47,104.5-104.5v-227.9c.3-57.5-46.7-104.5-104.2-104.5ZM288.3,95.6c13.1,0,23.8,10.7,23.8,23.8s-10.7,23.8-23.8,23.8-23.8-10.7-23.8-23.8c-.3-13.1,10.5-23.8,23.8-23.8ZM326.9,167.6c13.1,0,23.8,10.7,23.8,23.8s-10.7,23.8-23.8,23.8-23.8-10.7-23.8-23.8c-.3-13.4,10.5-23.8,23.8-23.8ZM281.1,191.4c0,17.4-13.9,31.4-31.4,31.4s-31.4-13.9-31.4-31.4,13.9-31.4,31.4-31.4,31.4,14.2,31.4,31.4ZM211.1,95.6c13.1,0,23.8,10.7,23.8,23.8s-10.7,23.8-23.8,23.8-23.8-10.7-23.8-23.8c-.3-13.1,10.5-23.8,23.8-23.8ZM196.3,191.1c0,13.1-10.7,23.8-23.8,23.8s-23.8-10.7-23.8-23.8,10.7-23.8,23.8-23.8c13.1.3,23.8,10.7,23.8,23.8ZM133.9,143.2c-13.1,0-23.8-10.7-23.8-23.8s10.7-23.8,23.8-23.8,23.8,10.7,23.8,23.8-10.7,23.8-23.8,23.8ZM355.7,244.3c-22.9,16.3-73.2,40.1-73.2,40.1l49.4,139.1s-4.4,5.5-15.1-7.5c-7.8-9.6-45.6-58.9-59.2-76.1-2.3-2.9-4.6-4.4-7.3-4.6-2.6.3-4.9,1.7-7.3,4.6-13.4,17.1-49.4,66.8-57.2,76.1-10.7,13.1-15.1,7.5-15.1,7.5l47.6-139.1s-50.2-23.8-73.2-40.1c-8.1-5.8-6.4-9,0-7.5,40.1,9.3,73.2,13.9,105.1,14.2,31.6-.3,65-4.9,105.1-14.2,6.7-1.5,8.4,2,.3,7.5ZM365.5,143.2c-13.1,0-23.8-10.7-23.8-23.8s10.7-23.8,23.8-23.8,23.8,10.7,23.8,23.8-10.7,23.8-23.8,23.8Z"/>
    </g>
  </g>
</svg>