<?xml version="1.0" encoding="UTF-8"?>
<svg xmlns="http://www.w3.org/2000/svg" version="1.1" viewBox="0 0 807.2 165.9">
  <defs>
    <style>
      .cls-1 {
        fill: #fff;
      }
    </style>
  </defs>
  <!-- Generator: Adobe Illustrator 28.7.1, SVG Export Plug-In . SVG Version: 1.2.0 Build 142)  -->
  <g>
    <g id="Calque_1">
      <g>
        <g>
          <polygon class="cls-1" points="210.7 135.1 206.1 135.1 206.1 166.1 227.9 166.1 227.9 161.8 210.7 161.8 210.7 135.1"/>
          <path class="cls-1" d="M246.8,135.1l-13.9,31h5l3.3-7.6h15l3.4,7.6h5l-13.9-31h-3.9ZM243.2,154.2l5.7-12.9,5.6,12.9h-11.3Z"/>
          <path class="cls-1" d="M292.1,150.2c.8-.4,1.5-1,2.1-1.8,1.1-1.3,1.6-3,1.6-4.9s-.9-4.6-2.5-6.1c-1.7-1.5-4-2.3-6.9-2.3h-14.3v31h14.9c3.1,0,5.5-.8,7.2-2.4,1.7-1.6,2.6-3.7,2.6-6.3s-.6-3.9-1.9-5.3c-.7-.8-1.7-1.5-2.8-1.9ZM276.8,139.2h9.4c1.6,0,3,.4,3.9,1.2s1.4,1.9,1.4,3.2-.4,2.6-1.4,3.5c-.9.9-2.1,1.3-3.7,1.3h-9.6v-9.2h0ZM290.7,160.6c-1,.9-2.3,1.3-4,1.3h-9.9v-9.5h10c1.6,0,2.9.4,4,1.3,1,.9,1.5,2,1.5,3.4-.1,1.5-.6,2.6-1.6,3.5Z"/>
          <path class="cls-1" d="M321,134.5c-4.5,0-8.3,1.6-11.4,4.7-3.1,3.1-4.6,6.9-4.6,11.4s1.6,8.3,4.6,11.4c3.1,3.1,6.9,4.7,11.4,4.7s8.3-1.6,11.3-4.7c3.1-3.1,4.7-6.9,4.7-11.4s-1.6-8.3-4.7-11.4c-3-3.1-6.9-4.7-11.3-4.7ZM329,158.9c-2.2,2.2-4.9,3.3-8,3.3s-5.9-1.1-8.1-3.3-3.3-5-3.3-8.3,1.1-6.1,3.3-8.3c2.2-2.2,4.9-3.4,8.1-3.4s5.9,1.1,8,3.4c2.2,2.3,3.3,5,3.3,8.3s-1.1,6.1-3.3,8.3Z"/>
          <path class="cls-1" d="M368.6,150.8c1.9-1.7,2.9-3.9,2.9-6.6s-1-4.9-2.9-6.6c-1.9-1.6-4.4-2.5-7.4-2.5h-14.4v31h4.6v-12.8h4.7l11.4,12.8h5.9l-11.6-12.8c2.7-.2,5-1,6.8-2.5ZM351.4,149v-9.6h9.8c1.7,0,3.1.4,4.2,1.3,1,.9,1.5,2,1.5,3.5s-.5,2.6-1.5,3.5-2.4,1.3-4.2,1.3h-9.8Z"/>
          <path class="cls-1" d="M391.9,135.1l-13.9,31h5l3.3-7.6h15.1l3.3,7.6h5l-13.9-31h-3.9ZM388.2,154.2l5.7-12.9,5.6,12.9h-11.3Z"/>
          <polygon class="cls-1" points="411.7 139.4 422.8 139.4 422.8 166.1 427.5 166.1 427.5 139.4 438.6 139.4 438.6 135.1 411.7 135.1 411.7 139.4"/>
          <path class="cls-1" d="M460.2,134.5c-4.5,0-8.3,1.6-11.4,4.7-3.1,3.1-4.6,6.9-4.6,11.4s1.6,8.3,4.6,11.4c3.1,3.1,6.9,4.7,11.4,4.7s8.3-1.6,11.4-4.7c3.1-3.1,4.6-6.9,4.6-11.4s-1.6-8.3-4.6-11.4c-3.1-3.1-7-4.7-11.4-4.7ZM468.2,158.9c-2.2,2.2-4.9,3.3-8,3.3s-5.9-1.1-8.1-3.3-3.3-5-3.3-8.3,1.1-6.1,3.3-8.3c2.2-2.2,4.9-3.4,8.1-3.4s5.9,1.1,8,3.4c2.2,2.3,3.3,5,3.3,8.3s-1.1,6.1-3.3,8.3Z"/>
          <rect class="cls-1" x="485.9" y="135.1" width="4.6" height="31"/>
          <path class="cls-1" d="M523.6,150.8c1.9-1.7,2.9-3.9,2.9-6.6s-1-4.9-2.9-6.6c-1.9-1.6-4.4-2.5-7.4-2.5h-14.4v31h4.6v-12.8h4.7l11.4,12.8h5.9l-11.6-12.8c2.7-.2,5-1,6.8-2.5ZM506.4,149v-9.6h9.8c1.7,0,3.1.4,4.2,1.3,1,.9,1.5,2,1.5,3.5s-.5,2.6-1.5,3.5-2.4,1.3-4.2,1.3h-9.8Z"/>
          <polygon class="cls-1" points="540.7 152.6 557.7 152.6 557.7 148.4 540.7 148.4 540.7 139.4 558.9 139.4 558.9 135.1 536.1 135.1 536.1 166.1 559 166.1 559 161.8 540.7 161.8 540.7 152.6"/>
        </g>
        <g>
          <path class="cls-1" d="M429.5,97.1c-4.8,0-10.5-2.1-10.5-12.1v-29.6h17.6l1.4-17.7h-19v-19.7l-14.5,3.9c-3.5.8-6.9,3.1-6.9,10.6v53.5c0,25.6,16.9,29.6,28.1,29.6s13.9-1.9,19.3-5.3l-5.4-15.9c-3.2,1.8-6.6,2.7-10.1,2.7Z"/>
          <path class="cls-1" d="M525.2,93.2l-19.6-4.4c-3.3,5.9-10,8.8-17.3,8.8s-17.9-5.2-17.9-16.7h56v-5.4c-.2-12-3.8-21.8-10.8-29.2-6.9-7.3-17-11-27.2-11s-20.7,3.8-27.9,11.3c-7.2,7.5-10.9,17.2-10.9,28.8s3.7,21.5,10.9,28.9c7.2,7.5,17.3,11.2,27.7,11.2s16.9-2,22.9-5.9c6-3.7,11.1-9,14.1-16.4ZM488.7,53.6c12.5,0,16.6,8.9,17,13.9h-34.8c1.2-8.1,7.7-13.9,17.8-13.9Z"/>
          <rect class="cls-1" x="683" y="37.8" width="21.4" height="75.5"/>
          <path class="cls-1" d="M281.4,113.2h11.7V15.8h-21.5v61.9l-35.7-53.1c-5.7-7.3-7.9-8.8-18.7-8.8h-11.1v97.5h21.5v-63.7l38.2,56.9c3.8,5.5,9.8,6.7,15.6,6.7Z"/>
          <path class="cls-1" d="M382.4,76.9v-39.1h-21.6v41.3c0,24.5-30.5,24.5-30.5,0h0v-41.3h-21.5v39.2c0,29.3,18.4,38.7,36.8,38.7,18.4,0,36.8-9.4,36.8-38.8Z"/>
          <path class="cls-1" d="M693.7-.4c-6.7,0-12.1,5.4-12.1,12.1s5.4,12.1,12.1,12.1,12.1-5.4,12.1-12.1c0-6.7-5.5-12.1-12.1-12.1Z"/>
          <path class="cls-1" d="M740.4,115.6c16.2,0,23.7-11.5,23.7-11.5v2.5c0,4.7,2,6.8,9.2,6.8h12.3v-41.9c0-22.1-11-36-32.5-36s-32.8,11.8-34,25.9h19.4c.9-4.7,5.5-9.1,13-9.1s12.1,5.8,12.1,14.3v1.4h-9.9c-26.5,0-38,9.1-38,25.4s9.2,22.2,24.7,22.2ZM754.2,81.1h9.5v6.7c0,1.2-.2,2.4-.5,3.5-1.6,5.1-7.2,8.3-13.7,8.3s-9.9-3-9.9-8.1c0-7.7,5-10.4,14.6-10.4Z"/>
          <path class="cls-1" d="M587,37.1c-25.4-7.6-49.5,4.1-49.5,32.1v44.1h21.4v-42.8c0-17.3,13.1-19,22.4-16.5l5.7-16.9Z"/>
          <path class="cls-1" d="M666.8,106.5V37.8h-21.4v6.1l-1.5-1.3c-5.2-4.8-11.6-7.2-20.5-7.2-15.2,0-35,11.6-35,37.1s15.2,36.4,34.6,36.4,22.7-8.5,22.7-8.5v5.1c0,22.7-27.6,23.7-37.8,9.1l-16.7,10.9c16.5,25.2,75.6,25.2,75.6-19ZM640.7,85.1c-3.4,3.5-7.7,5.3-12.6,5.3s-9.6-1.8-13.1-5.3c-3.4-3.5-5.2-8-5.2-13.3s1.7-9.8,5.1-13.3c3.4-3.5,7.8-5.2,13.2-5.2s9.2,1.8,12.6,5.3c3.4,3.5,5.2,7.9,5.2,13.2-.1,5.3-1.8,9.8-5.2,13.3Z"/>
        </g>
        <path class="cls-1" d="M137.5,15.8H58.9c-19.8,0-36,16.2-36,36v78.5c0,19.8,16.2,36,36,36h78.5c19.8,0,36-16.2,36-36V51.8c0-19.8-16.1-36-35.9-36ZM111.5,37.9c4.5,0,8.2,3.7,8.2,8.2s-3.7,8.2-8.2,8.2-8.2-3.7-8.2-8.2c0-4.5,3.6-8.2,8.2-8.2ZM124.8,62.7c4.5,0,8.2,3.7,8.2,8.2s-3.7,8.2-8.2,8.2-8.2-3.7-8.2-8.2c-.1-4.6,3.6-8.2,8.2-8.2ZM109,70.9c0,6-4.8,10.8-10.8,10.8s-10.8-4.8-10.8-10.8,4.8-10.8,10.8-10.8,10.8,4.9,10.8,10.8ZM84.9,37.9c4.5,0,8.2,3.7,8.2,8.2s-3.7,8.2-8.2,8.2-8.2-3.7-8.2-8.2c-.1-4.5,3.6-8.2,8.2-8.2ZM79.8,70.8c0,4.5-3.7,8.2-8.2,8.2s-8.2-3.7-8.2-8.2,3.7-8.2,8.2-8.2c4.5,0,8.2,3.7,8.2,8.2ZM58.3,54.3c-4.5,0-8.2-3.7-8.2-8.2s3.7-8.2,8.2-8.2,8.2,3.7,8.2,8.2-3.7,8.2-8.2,8.2ZM134.7,89.1c-7.9,5.6-25.2,13.8-25.2,13.8l17,47.9s-1.5,1.9-5.2-2.6c-2.7-3.3-15.7-20.3-20.4-26.2-.8-1-1.6-1.5-2.5-1.6-.9,0-1.7.6-2.5,1.6-4.6,5.9-17,23-19.7,26.2-3.7,4.5-5.2,2.6-5.2,2.6l16.4-47.9s-17.3-8.2-25.2-13.8c-2.8-2-2.2-3.1,0-2.6,13.8,3.2,25.2,4.8,36.2,4.9,10.9,0,22.4-1.7,36.2-4.9,2.3-.5,2.9.7,0,2.6ZM138.1,54.3c-4.5,0-8.2-3.7-8.2-8.2s3.7-8.2,8.2-8.2,8.2,3.7,8.2,8.2-3.7,8.2-8.2,8.2Z"/>
      </g>
    </g>
  </g>
</svg>