<?xml version="1.0" encoding="UTF-8"?>
<svg id="Calque_1" xmlns="http://www.w3.org/2000/svg" version="1.1" viewBox="0 0 795.1 81.7">
  <!-- Generator: Adobe Illustrator 30.1.0, SVG Export Plug-In . SVG Version: 2.1.1 Build 136)  -->
  <defs>
    <style>
      .st0 {
        fill: #cceaf8;
      }

      .st1 {
        fill: #fff;
      }

      .st2 {
        fill: #0e468c;
      }
    </style>
  </defs>
  <path class="st1" d="M239.2,78.3h12.9v-28.7l27.4-44.7h-14.3l-19.1,32.8-19.5-32.8h-14.8l27.5,44.7v28.7ZM206.3,39.7h-31.3v9.7h19.5c-.2,12.4-7.4,20.3-20.6,20.1-15.7,0-22.3-13.8-22.3-28s6.6-28,22.3-28,17.6,4.9,19,14.7h12.5c-2-16.5-15.5-25.1-31.5-25.1s-35.1,17.5-35.1,38.4,13.2,38.4,35.1,38.4,15.2-2.6,22.1-10.4l2,8.6h8.2v-38.4h.2ZM69.8,78.3h12.9v-30.2h19c11.9,0,14.7,5.9,14.7,19.5s0,7.6,2,10.7h13.8c-2.8-3-4-10.7-4-19.3s-6.4-14.8-10.9-15.5v-.2c2.3-.8,12.2-4.5,12.2-18.5s-8.2-19.8-24.2-19.8h-35.4v73.2ZM82.6,15.5h20.9c6.8,0,12.7,1.8,12.7,11.2s-4.5,11.7-12.5,11.7h-21.1V15.5ZM18,45.8v-29.8h39.9V5H5.2v73.3h53.6v-11H17.9l.2-21.4"/>
  <g>
    <path class="st2" d="M279.5,93c.3.7.5,1.3.7,2.1l1.5-2.1c-.8-.2-1.5,0-2.1,0Z"/>
    <path class="st1" d="M283.1,92c-1.6,0-3.3.2-4.9.3.8,1.5,1.3,3.1,1.5,4.9l3.5-5.3"/>
  </g>
  <rect class="st1" x="22.6" y="35.2" width="30" height="10.9"/>
  <g>
    <path class="st0" d="M285.4,4.9h18.1l20.2,57.5h.2l19.7-57.5h17.9v73.4h-12.2V21.6h-.2l-20.3,56.6h-10.6l-20.4-56.6h-.2v56.6h-12.2V4.9Z"/>
    <path class="st0" d="M396.6,4.9h13.7l28.3,73.4h-13.8l-6.9-19.4h-29.3l-6.9,19.4h-13.3l28.2-73.4ZM392.1,49.1h22.4l-11-31.6h-.3l-11.1,31.6Z"/>
    <path class="st0" d="M445,4.9h13.6l33.5,54.1h.2V4.9h12.2v73.4h-13.6l-33.4-54h-.3v54h-12.2V4.9Z"/>
    <path class="st0" d="M539.4,4.9h13.7l28.3,73.4h-13.8l-6.9-19.4h-29.3l-6.9,19.4h-13.3l28.2-73.4ZM534.9,49.1h22.4l-11-31.6h-.3l-11.1,31.6Z"/>
    <path class="st0" d="M652.3,78.3h-8.2l-2-8.6c-6.9,7.8-13.2,10.4-22.1,10.4-22,0-35.1-17.5-35.1-38.4s13.2-38.4,35.1-38.4,29.5,8.5,31.4,25.1h-12.5c-1.2-9.7-9.7-14.6-18.9-14.6-15.7,0-22.3,13.9-22.3,28s6.6,28,22.3,28c13.2.2,20.4-7.7,20.6-20.1h-19.5v-9.8h31.2v38.6Z"/>
    <path class="st0" d="M666.3,4.9h52.8v11.1h-40v19.2h37v10.5h-37v21.5h40.7v11.1h-53.5V4.9Z"/>
  </g>
</svg>